<?xml version="1.0" encoding="UTF-8" standalone="no"?>
<!-- Created with Inkscape (http://www.inkscape.org/) -->

<svg
   xmlns:dc="http://purl.org/dc/elements/1.1/"
   xmlns:cc="http://creativecommons.org/ns#"
   xmlns:rdf="http://www.w3.org/1999/02/22-rdf-syntax-ns#"
   xmlns:svg="http://www.w3.org/2000/svg"
   xmlns="http://www.w3.org/2000/svg"
   xmlns:sodipodi="http://sodipodi.sourceforge.net/DTD/sodipodi-0.dtd"
   xmlns:inkscape="http://www.inkscape.org/namespaces/inkscape"
   width="809.70081"
   height="1122.5197"
   viewBox="0 0 214.23328 297"
   version="1.1"
   id="svg8"
   inkscape:version="0.92.4 (5da689c313, 2019-01-14)"
   sodipodi:docname="bg-desktop-p-right.svg">
  <defs
     id="defs2">
    <inkscape:perspective
       sodipodi:type="inkscape:persp3d"
       inkscape:vp_x="0 : 148.5 : 1"
       inkscape:vp_y="0 : 1000 : 0"
       inkscape:vp_z="214.23328 : 148.5 : 1"
       inkscape:persp3d-origin="107.11664 : 99 : 1"
       id="perspective4581" />
    <clipPath
       clipPathUnits="userSpaceOnUse"
       id="clipPath4630">
      <rect
         id="rect4632"
         width="137.10416"
         height="141.78149"
         x="81.93544"
         y="-5.7654877"
         style="stroke-width:0.25726375" />
    </clipPath>
  </defs>
  <sodipodi:namedview
     id="base"
     pagecolor="#ffffff"
     bordercolor="#666666"
     borderopacity="1.0"
     inkscape:pageopacity="0.0"
     inkscape:pageshadow="2"
     inkscape:zoom="0.35"
     inkscape:cx="400"
     inkscape:cy="613.85438"
     inkscape:document-units="mm"
     inkscape:current-layer="layer1"
     showgrid="false"
     units="px"
     inkscape:window-width="1366"
     inkscape:window-height="705"
     inkscape:window-x="-8"
     inkscape:window-y="-8"
     inkscape:window-maximized="1" />
  <metadata
     id="metadata5">
    <rdf:RDF>
      <cc:Work
         rdf:about="">
        <dc:format>image/svg+xml</dc:format>
        <dc:type
           rdf:resource="http://purl.org/dc/dcmitype/StillImage" />
        <dc:title></dc:title>
      </cc:Work>
    </rdf:RDF>
  </metadata>
  <g
     inkscape:label="Vrstva 1"
     inkscape:groupmode="layer"
     id="layer1"
     transform="translate(0,5.9585548e-4)">
    <g
       id="g68"
       transform="matrix(0.96489895,0,0,0.96489895,3.3393952,4.7398338)"
       clip-path="url(#clipPath4630)">
      <g
         style="fill:none;fill-rule:evenodd;stroke:#96a9c6"
         transform="matrix(0.26458333,0,0,0.26458333,95.004244,-21.728446)"
         id="g44">
        <path
           inkscape:connector-curvature="0"
           d="M 341.639,-24.675 C 265.936,-48.368 188.096,-87.887 108.404,-15.705 28.71,56.477 -21.39,119.709 10.964,201.522 c 32.354,81.814 164.422,30.855 202.794,103.977 38.373,73.122 -45.94,139.485 -9.591,204.563 36.35,65.078 64.3,106.787 181.115,65.409 C 502.098,534.092 491.327,428.807 580.16,367.153 668.993,305.499 765.104,213.2 633.206,48.506 501.308,-116.188 417.341,-0.98 341.64,-24.674 Z"
           id="path32" />
        <path
           inkscape:connector-curvature="0"
           d="M 351.105,13.249 C 289.522,-5.991 226.2,-38.081 161.371,20.532 96.543,79.146 55.786,130.491 82.105,196.925 c 26.32,66.434 133.755,25.055 164.971,84.43 31.216,59.377 -37.372,113.266 -7.802,166.11 29.57,52.845 52.306,86.713 147.334,53.113 95.028,-33.6 86.267,-119.094 158.53,-169.158 C 617.403,281.356 695.588,206.408 588.291,72.673 480.994,-61.062 412.688,32.489 351.105,13.249 Z"
           id="path34" />
        <path
           inkscape:connector-curvature="0"
           d="M 368.812,38.417 C 318.85,22.72 267.478,-3.465 214.883,44.36 c -52.594,47.825 -85.66,89.72 -64.307,143.926 21.353,54.206 108.513,20.443 133.838,68.89 25.325,48.448 -30.32,92.418 -6.33,135.536 23.99,43.117 42.436,70.752 119.531,43.336 C 474.71,408.633 467.602,338.875 526.229,298.026 584.856,257.176 648.287,196.023 561.238,86.904 474.189,-22.216 418.773,54.116 368.812,38.417 Z"
           id="path36" />
        <path
           inkscape:connector-curvature="0"
           d="m 387.316,69.184 c -40.295,-12.596 -81.728,-33.603 -124.147,4.768 -42.419,38.371 -69.087,71.984 -51.865,115.475 17.221,43.491 87.518,16.402 107.943,55.273 20.425,38.87 -24.453,74.148 -5.105,108.743 19.348,34.595 34.225,56.767 96.404,34.77 62.179,-21.996 56.446,-77.965 103.73,-110.739 C 561.56,244.7 612.718,195.635 542.512,108.086 472.305,20.536 427.611,81.779 387.316,69.184 Z"
           id="path38" />
        <path
           inkscape:connector-curvature="0"
           d="m 392.083,89.046 c -32.91,-10.295 -66.749,-27.467 -101.393,3.897 -34.643,31.365 -56.424,58.84 -42.358,94.389 14.065,35.549 71.477,13.407 88.158,45.179 16.682,31.772 -19.971,60.609 -4.17,88.886 15.803,28.277 27.953,46.4 78.735,28.42 50.782,-17.979 46.1,-63.727 84.718,-90.516 38.617,-26.79 80.398,-66.895 23.06,-138.457 C 461.494,49.282 424.992,99.341 392.083,89.046 Z"
           id="path40" />
        <path
           inkscape:connector-curvature="0"
           d="m 401.225,103.406 c -26.718,-8.36 -54.191,-22.305 -82.318,3.165 -28.127,25.47 -45.81,47.78 -34.39,76.649 11.419,28.868 58.03,10.887 71.574,36.688 13.544,25.8 -16.214,49.217 -3.385,72.18 12.83,22.963 22.694,37.68 63.923,23.08 41.229,-14.6 37.428,-51.75 68.78,-73.505 31.353,-21.755 65.275,-54.323 18.723,-112.435 -46.553,-58.112 -76.188,-17.462 -102.907,-25.822 z"
           id="path42" />
      </g>
    </g>
    <rect
       id="rect4628"
       width="9.0714283"
       height="27.214285"
       x="-231.32143"
       y="90.624397"
       style="stroke-width:0.26458332" />
  </g>
</svg>
